<svg fill="#000000" xmlns="http://www.w3.org/2000/svg"  viewBox="0 0 50 50" width="50px" height="50px"><path d="M31.17,10c8.189,0,8.83,0.641,8.83,8.83v12.34c0,8.189-0.641,8.83-8.83,8.83h-1.567V29.078h3.85l0.605-4.327h-4.456	c0,0-0.007-2.534,0-3.166c0.013-1.237,1.045-1.863,1.933-1.853c0.888,0.009,2.726,0.003,2.726,0.003v-3.988	c0,0-1.592-0.206-3.262-0.223c-1.403-0.014-2.953,0.365-4.203,1.625c-1.272,1.282-1.473,3.19-1.497,5.523	c-0.007,0.675,0,2.079,0,2.079h-3.768v4.327H25.3V40h-6.47C10.641,40,10,39.359,10,31.17V18.83c0-8.189,0.641-8.83,8.83-8.83H31.17z"/></svg>