<svg fill="#000000" xmlns="http://www.w3.org/2000/svg"  viewBox="0 0 50 50" width="50px" height="50px"><path d="M25,8c9.389,0,17,7.611,17,17s-7.611,17-17,17c-1.822,0-3.574-0.294-5.219-0.824	c0.534-0.843,2.056-3.528,2.446-4.984c0.202-0.754,1.006-3.838,1.006-3.838c0.526,1.004,2.064,1.854,3.7,1.854	c4.869,0,8.377-4.478,8.377-10.042c0-5.333-4.352-9.324-9.953-9.324c-6.967,0-10.667,4.677-10.667,9.77	c0,2.368,1.261,5.316,3.277,6.254c0.306,0.142,0.47,0.08,0.54-0.216c0.053-0.224,0.326-1.321,0.448-1.831	c0.039-0.163,0.02-0.303-0.112-0.463c-0.667-0.809-1.201-2.297-1.201-3.684c0-3.561,2.696-7.006,7.29-7.006	c3.966,0,6.744,2.703,6.744,6.568c0,4.367-2.206,7.393-5.075,7.393c-1.585,0-2.771-1.31-2.391-2.917	c0.455-1.919,1.337-3.99,1.337-5.375c0-1.24-0.665-2.274-2.043-2.274c-1.62,0-2.921,1.676-2.921,3.921	c0,1.43,0.483,2.397,0.483,2.397s-1.6,6.765-1.893,8.025c-0.278,1.193-0.113,4.536-0.028,5.54C12.645,38.554,8,32.328,8,25	C8,15.611,15.611,8,25,8z"/></svg>